<?xml version="1.0" encoding="UTF-8"?>
<svg id="Layer_2" data-name="Layer 2" xmlns="http://www.w3.org/2000/svg" viewBox="0 0 115.06 155.33">
  <defs>
    <style>
      .cls-1 {
        fill: red;
      }
    </style>
  </defs>
  <g id="Layer_1-2" data-name="Layer 1">
    <g>
      <path d="M77.48,95.93c-7.58-4.24-11.88-16.4-8.01-22.64,6.72-10.85,33.74,3.31,42.66-7.63,8.32-10.21-1.88-37.73-20.28-51.88C68.59-4.1,23.67-7.37,6.4,20.9c-15.48,25.35-.5,62.6,19.64,72.09,16.18,7.63,35.18-2.91,39.36,4.71,3.86,7.04-12.01,16.7-10.68,33.57.85,10.78,8.6,22.99,17.16,23.99,19.94,2.34,46.27-55.96,37.26-63.66-5.29-4.53-19.87,10.92-31.66,4.33Z"/>
      <path class="cls-1" d="M50.11,10.55c-5.16.18-16.29.56-20.16,7.88-2.29,4.32-2.02,11.03,1.32,13.67,1.46,1.15,3.15,1.26,4.07,1.3,14.39.7,19.3-1.73,26.36,0,7.89,1.93,9.43,6.84,15.28,5.69,2.88-.56,6.53-2.55,7.49-5.69,1.99-6.55-8.71-14.8-14.75-18.19-2.14-1.2-9.47-5.02-19.6-4.67Z"/>
      <circle class="cls-1" cx="101.1" cy="57.82" r="4.24"/>
      <circle class="cls-1" cx="60.82" cy="51.1" r="4.24"/>
      <circle class="cls-1" cx="71.88" cy="54.26" r="1.92"/>
      <circle class="cls-1" cx="83.93" cy="16.79" r="1.92"/>
    </g>
  </g>
</svg>