<?xml version="1.0" encoding="UTF-8"?>
<svg id="_레이어_2" data-name="레이어 2" xmlns="http://www.w3.org/2000/svg" viewBox="0 0 25.35 25.35">
  <defs>
    <style>
      .cls-1 {
        fill: #fff;
        stroke: red;
        stroke-miterlimit: 10;
        stroke-width: 2.6px;
      }

      .cls-2 {
        fill: red;
      }
    </style>
  </defs>
  <g id="_레이어_1-2" data-name="레이어 1">
    <g>
      <circle class="cls-1" cx="12.67" cy="12.67" r="11.37"/>
      <path class="cls-2" d="M12.14,9.84c.2.19.38.42.52.67h.03c.55-.97,1.62-1.59,2.76-1.46,1.25.15,2.22,1.14,2.3,2.41.1,1.67-.5,2.7-1.65,3.81-.77.74-1.63,1.42-2.43,2.13-.34.3-.66.62-1,.92-.04,0-.22-.2-.27-.24-.97-.89-1.98-1.72-2.94-2.6-.83-.76-1.54-1.53-1.78-2.67-.26-1.24-.1-2.55,1.01-3.31s2.51-.55,3.45.35Z"/>
    </g>
  </g>
</svg>