<?xml version="1.0" encoding="UTF-8"?>
<svg id="_레이어_2" data-name="레이어 2" xmlns="http://www.w3.org/2000/svg" viewBox="0 0 27.12 24.53">
  <defs>
    <style>
      .cls-1 {
        stroke-width: .79px;
      }

      .cls-1, .cls-2, .cls-3 {
        fill: none;
        stroke: #ffe700;
      }

      .cls-1, .cls-2, .cls-3, .cls-4 {
        stroke-miterlimit: 10;
      }

      .cls-2 {
        stroke-width: .13px;
      }

      .cls-3 {
        stroke-width: .26px;
      }

      .cls-5 {
        fill: #ffe700;
      }

      .cls-4 {
        fill: #fff;
        stroke: #231815;
        stroke-width: 1.04px;
      }
    </style>
  </defs>
  <g id="_레이어_1-2" data-name="레이어 1">
    <g>
      <g>
        <path class="cls-4" d="M10.62,2.22L.98,18.92c-1.31,2.26.33,5.09,2.94,5.09h19.29c2.61,0,4.24-2.83,2.94-5.09L16.5,2.22C15.19-.04,11.93-.04,10.62,2.22Z"/>
        <ellipse class="cls-1" cx="13.61" cy="14.36" rx="6.35" ry=".54"/>
        <path class="cls-5" d="M16.72,14.79h-6.21c-.99,0-1.51-.98-1.21-2.05l.57-2.03c.2-.71.9-1.23,1.59-1.23h4.31c.68,0,1.38.52,1.59,1.23l.57,2.03c.3,1.07-.22,2.05-1.21,2.05Z"/>
        <path class="cls-3" d="M8.76,14.19c-.47,3.26,2.55,5.69,5.08,5.6,2.39-.08,5-2.41,4.63-5.44"/>
        <path class="cls-2" d="M13.39,19.82c-.42-.06-.75.19-.78.47-.02.21.12.46.27.46.12,0,.29-.15.51-.94Z"/>
        <line class="cls-2" x1="13.42" y1="19.88" x2="13.06" y2="21.39"/>
      </g>
      <path class="cls-2" d="M13.52,19.82c.42-.06.75.19.78.47.02.21-.12.46-.27.46-.12,0-.29-.15-.51-.94Z"/>
      <line class="cls-2" x1="13.49" y1="19.88" x2="13.85" y2="21.39"/>
    </g>
  </g>
</svg>