<?xml version="1.0" encoding="UTF-8"?>
<svg id="_레이어_2" data-name="레이어 2" xmlns="http://www.w3.org/2000/svg" viewBox="0 0 27.12 24.53">
  <defs>
    <style>
      .cls-1 {
        fill: #03f;
      }

      .cls-2 {
        fill: #fff;
        stroke: #03f;
        stroke-miterlimit: 10;
        stroke-width: 1.04px;
      }
    </style>
  </defs>
  <g id="_레이어_1-2" data-name="레이어 1">
    <g>
      <path class="cls-2" d="M10.62,2.22L.98,18.92c-1.31,2.26.33,5.09,2.94,5.09h19.29c2.61,0,4.24-2.83,2.94-5.09L16.5,2.22C15.19-.04,11.93-.04,10.62,2.22Z"/>
      <path class="cls-1" d="M15.41,13.5c-.32-.43-.23-.69-.36-1.13,0,0-.06-.2-.21-.48-.35-.63-1.72-1.21-3.09-1-.3.05-.97.16-1.57.66-.55.45-.45.74-.89,1.19-.96,1-2.2.33-2.79,1.16-.43.61-.3,1.65.18,2.2.61.69,1.65.48,1.75.92.08.32-.61.47-.9,1.19,0,0-.22.55-.06,1.19.53,2.02,9.72,2.53,10.42.41.16-.5-.2-.96.12-1.31.62-.67,2.44.7,3.31-.03.49-.4.47-1.28.29-1.83-.37-1.12-1.71-1.61-2.73-1.97-1.91-.69-2.86-.34-3.48-1.18Z"/>
    </g>
  </g>
</svg>