<?xml version="1.0" encoding="UTF-8"?>
<svg id="_레이어_2" data-name="레이어 2" xmlns="http://www.w3.org/2000/svg" xmlns:xlink="http://www.w3.org/1999/xlink" viewBox="0 0 25.35 25.35">
  <defs>
    <style>
      .cls-1 {
        fill: none;
      }

      .cls-2 {
        fill: #fad8b4;
      }

      .cls-3 {
        fill: #963;
      }

      .cls-4 {
        fill: #fff;
        stroke: #03f;
        stroke-miterlimit: 10;
        stroke-width: 2.6px;
      }

      .cls-5 {
        fill: #c60;
      }

      .cls-6 {
        fill: #fc6;
      }

      .cls-7 {
        fill: #acacac;
      }

      .cls-8 {
        clip-path: url(#clippath);
      }

      .cls-9 {
        fill: #72351d;
      }
    </style>
    <clipPath id="clippath">
      <rect class="cls-1" x="6.56" y="1.68" width="13.69" height="6.44" transform="translate(26.81 9.8) rotate(180)"/>
    </clipPath>
  </defs>
  <g id="_레이어_1-2" data-name="레이어 1">
    <g>
      <circle class="cls-4" cx="12.67" cy="12.67" r="11.37"/>
      <rect class="cls-6" x="6.79" y="11.96" width="11.55" height="3.01"/>
      <polygon class="cls-6" points="19.77 17.61 5.37 17.61 6.79 15.11 18.34 15.11 19.77 17.61"/>
      <circle class="cls-2" cx="13.41" cy="8.84" r="3.12"/>
      <g>
        <rect class="cls-3" x="9.34" y="8.09" width="8.13" height=".61" rx=".2" ry=".2"/>
        <g class="cls-8">
          <circle class="cls-3" cx="13.41" cy="8.78" r="3.12"/>
        </g>
      </g>
      <path class="cls-9" d="M13.21,11.91h.4c1.05,0,1.9.85,1.9,1.9v3.12h-4.2v-3.12c0-1.05.85-1.9,1.9-1.9Z"/>
      <path class="cls-5" d="M8.23,14.14s.04.03.05.03c.23,0,.46,0,.69,0,.01,0,.02-.01.04-.03.03-.03.03-.07.03-.08l-.04-1.78s0-.03.01-.06c.02-.04.07-.05.08-.05.22,0,.44,0,.66,0,.03,0,.05,0,.07.02.02.02.02.05.02.05,0,2.4,0,4.81,0,7.21,0,0,0,.05.03.08.03.03.06.03.07.04h.65s.03-.01.05-.03c.02-.03.03-.06.03-.07,0-2.61,0-5.22,0-7.83,0,0,.02-.14-.09-.22-.07-.06-.16-.05-.18-.05-.64,0-1.29-.01-1.93-.02-.01,0-.16,0-.25.13-.05.08-.05.15-.05.18,0,.8.02,1.59.03,2.39,0,0,0,.04.03.07Z"/>
      <path class="cls-7" d="M14.35,10.83c-.19-.33-.54-.53-.91-.52-.56,0-.86.46-.88.49v1.91c.59,0,1.19.01,1.78.02,0-.63,0-1.27.01-1.9Z"/>
    </g>
  </g>
</svg>