<?xml version="1.0" encoding="UTF-8"?>
<svg id="_레이어_2" data-name="레이어 2" xmlns="http://www.w3.org/2000/svg" viewBox="0 0 25.35 25.35">
  <defs>
    <style>
      .cls-1 {
        fill: #fff;
        stroke: red;
        stroke-width: 2.6px;
      }

      .cls-1, .cls-2 {
        stroke-miterlimit: 10;
      }

      .cls-2 {
        fill: none;
        stroke: #000;
        stroke-width: .15px;
      }

      .cls-3 {
        fill: red;
      }
    </style>
  </defs>
  <g id="_레이어_1-2" data-name="레이어 1">
    <g>
      <circle class="cls-1" cx="12.67" cy="12.67" r="11.37"/>
      <g>
        <path d="M16.43,6.93c-.08-.24.07-.44.1-.65.07-.46.1-.99.03-1.45-.07.02-.1.1-.12.16-.07.29-.07.65-.13.95-.07.35-.17.7-.27,1.04-.15-.1-.02-.39-.02-.54,0-.13-.02-.92-.06-.97-.14.05-.16.27-.17.41-.04.4.01.87-.05,1.27-.24,1.46-1.09,2.68-2.02,3.79-.1.06-.47.55-.53.55-.13-.02-.13-.16-.19-.2-.04-.03-.1.02-.14,0-.09-.02-.16-.11-.29-.07.08-.14,0-.38-.06-.52-.08-.16-.24-.2-.27-.29-.04-.12.03-.5-.09-.71-.02-.04-.24-.19-.25-.22-.02-.04.03-.09,0-.15-.12-.27-.23-.57-.53-.69-.08-.34-.33-1.01-.77-.7-.04-.24-.15-.52-.29-.72-.04-.06-.1-.07-.13-.11-.05-.06.06-.14-.16-.11-.07.01-.23.12-.28.08-.03-.02-.15-.49-.2-.6-.1-.2-.4-.53-.64-.52-.02,0-.03.06-.06.08-.1.07-.17.04-.21.21-.03.14.1.4-.05.48,0-.39-.22-.67-.3-1.04-.07-.16-.46-.05-.51.02,0,0,.03.06.02.09-.09.3-.04.4-.05.68,0,.08,0,.15-.1.12-.04-.4-.28-.7-.53-.99-.1-.11-.27.02-.32.12-.14.27.23,1.52.12,1.64-.15,0-.16-.23-.23-.33-.09-.12-.3-.37-.41-.47-.09-.08-.46-.34-.56-.3-.25.11-.17.22-.09.43.05.12.17.27.21.35.43.93.68,1.94,1.06,2.84.15.35.35.69.51,1.03-.32.68.26,1.35.87,1.6.04.2.5.95.48,1.08-.02.13-.26-.05-.31-.07-.31-.12-.62-.31-.94-.43-.47-.18-1.2-.15-1.59.18-.26.22-.27.57-.42.86-.02.05-.1.02-.08.05.08.18.41.03.51-.06l-.13.39c.33-.17.71-.17,1.07-.13l-.09.04c.04.13.18.09.27.13.64.32,1.1.88,1.61,1.33.23.21.25.13.45.18.26.07.55.15.82.22.08.02.21.13.29.14.13.02,0-.09.26.04s.19.13.32.24c.06.05,1.31.65,1.39.67.05.01.09-.07.13-.05.14.06.56.51.69.56.1.04.25.01.38.05.19.06.32.28.58.22.08-.02.14-.11.22-.12.12,0,.32.15.28-.09.12.04.38,0,.49-.05.05-.03.06-.09.09-.11.04-.03.11,0,.11-.01.03-.03-.13-.28.04-.37.15-.08.5.34.67.38.09.1,0,.21.02.24.01.02.24.08.15.18-.13-.06-.21-.08-.32-.17-.06.14.22.25.25.3s-.09.12-.08.18c0,.05.11.08.08.16-.15.01-.26-.08-.41-.08-.08,0-.11.04-.06.08,0,0,.1,0,.15.04.73.46.93.9,1.81,1.28.21.09.43.2.64.31.05-.28.13-.07.18-.05.22.1.28.1.5.09.05,0,.21.09.18-.04s-.25-.29-.2-.47c.14.03.4.13.34-.09.44.08-.12-.28-.13-.36.06-.1.23-.04.28-.1.16-.23-.38-.28-.41-.37-.06-.18.24-.01.16-.21-.01-.03-.07-.01-.07-.04,0-.03.05-.09.04-.11-.01-.02-.34-.12-.4-.17-.04-.03-.02-.09-.06-.13-.62-.62-1.86-.55-2.65-.99-.2-.11-.66-.71-.89-.91-.16-.14-.43-.34-.61-.47s-.38-.21-.55-.35c.05-.11.13,0,.16-.03.02-.01.02-.08.07-.11.04-.02.37.06.45,0,.11-.07.05-.2.22-.25.11-.03.16.06.19.06.03,0,.05-.09.08-.11.21-.13.26.04.16-.4.15.14.3.08.44.11.12.02.29.13.39.06.09-.06.05-.2.08-.25.05-.08.25.04.3-.03.15-.21-.13-.28-.13-.49.03-.03.48.23.6.15.27-.17,0-.34-.08-.54l.43.08c.17-.25-.08-.34-.08-.36,0-.12.29-.02.32-.03.19-.04.05-.39.07-.42,0,0,.07.03.11.01.29-.12.03-.36.06-.4.4-.02.18-.27.22-.44.02-.08.15-.11.17-.23s-.06-.23-.05-.29c0-.03.34-.16.3-.52,0-.07-.07-.18-.07-.22,0-.04.13-.13.17-.2.02-.04.12-.33.12-.36,0-.14-.17-.2-.13-.27,0,0,.06,0,.07-.02.04-.07.17-.21.18-.23.04-.08.1-.48.06-.56s-.2-.15-.22-.25.2-.47.16-.68c-.02-.15-.24-.16-.24-.3,0-.06.11-.2.14-.3.04-.14.1-.65-.14-.57-.02,0-.16.31-.26.14.15-.29.23-1.37-.34-1.1-.01-.36-.03-.71-.24-1.03-.12-.17-.21.02-.36.04,0-.2-.19-.65-.29-.27s-.02,1.01-.19,1.44l-.25.51Z"/>
        <path class="cls-2" d="M5.39,14.49c-.07-.06-.07.02-.1.06-.06.08-.12.23-.12.33l.26-.28c-.13-.02-.03-.1-.04-.11Z"/>
      </g>
      <rect class="cls-3" x=".64" y="12.47" width="23.75" height="2.03" transform="translate(8.42 -4.45) rotate(30)"/>
    </g>
  </g>
</svg>