<?xml version="1.0" encoding="UTF-8"?>
<svg id="_레이어_2" data-name="레이어 2" xmlns="http://www.w3.org/2000/svg" viewBox="0 0 27.12 24.53">
  <defs>
    <style>
      .cls-1 {
        fill: #231815;
      }

      .cls-2 {
        fill: #fff100;
        stroke: #231815;
        stroke-miterlimit: 10;
        stroke-width: 1.04px;
      }
    </style>
  </defs>
  <g id="_레이어_1-2" data-name="레이어 1">
    <g>
      <path class="cls-2" d="M10.62,2.22L.98,18.92c-1.31,2.26.33,5.09,2.94,5.09h19.29c2.61,0,4.24-2.83,2.94-5.09L16.5,2.22C15.19-.04,11.93-.04,10.62,2.22Z"/>
      <g>
        <path class="cls-1" d="M7.72,19.22v-1.42h1.96v-4.85l-1.79,1.16v-1.43l1.86-1.27h1.6v6.4h1.67v1.42h-5.32Z"/>
        <path class="cls-1" d="M19.4,15.31c0,1.32-.23,2.33-.68,3.01-.46.68-1.14,1.02-2.05,1.02s-1.58-.33-2.03-1-.67-1.68-.67-3.02c0-.93.1-1.7.29-2.29s.49-1.03.87-1.31c.39-.28.91-.42,1.56-.42.93,0,1.62.33,2.05.99s.65,1.67.65,3.03ZM17.71,15.31c0-.67-.03-1.19-.09-1.57s-.17-.65-.31-.83c-.14-.17-.34-.26-.6-.26s-.48.08-.63.25-.25.44-.32.81-.09.9-.09,1.59.03,1.17.1,1.56.17.66.32.84c.15.18.35.26.6.26.37,0,.64-.2.8-.59s.23-1.08.23-2.06Z"/>
      </g>
    </g>
  </g>
</svg>