<?xml version="1.0" encoding="UTF-8"?>
<svg id="_레이어_2" data-name="레이어 2" xmlns="http://www.w3.org/2000/svg" viewBox="0 0 27.14 27.14">
  <defs>
    <style>
      .cls-1 {
        fill: #040000;
      }

      .cls-2 {
        fill: #fff;
      }

      .cls-3 {
        fill: #fff100;
        stroke: #231815;
        stroke-miterlimit: 10;
        stroke-width: 1.04px;
      }
    </style>
  </defs>
  <g id="_레이어_1-2" data-name="레이어 1">
    <g>
      <rect class="cls-3" x="3.31" y="3.31" width="20.51" height="20.51" rx="3.51" ry="3.51" transform="translate(13.57 -5.62) rotate(45)"/>
      <path class="cls-1" d="M12.63,13.09c.36.08.88.15,1.48.06.23-.04.44-.09.63-.15.88,2.68,1.76,5.36,2.64,8.04-2.58,0-5.15-.02-7.73-.02,1-2.64,1.99-5.28,2.99-7.92Z"/>
      <g>
        <path class="cls-1" d="M19.85,9.9c0-.38-1.31-.72-3.23-.89-.33-1.37-1.57-2.39-3.04-2.39s-2.71,1.02-3.04,2.39c-1.93.17-3.23.51-3.23.89s1.35.73,3.32.9c.43,1.22,1.59,2.09,2.96,2.09s2.53-.88,2.96-2.09c1.98-.17,3.32-.51,3.32-.9Z"/>
        <g>
          <ellipse class="cls-2" cx="19.24" cy="10.05" rx=".17" ry=".12"/>
          <ellipse class="cls-2" cx="18.31" cy="10.1" rx=".22" ry=".16"/>
          <ellipse class="cls-2" cx="17.37" cy="10.15" rx=".28" ry=".2"/>
          <ellipse class="cls-2" cx="16.44" cy="10.2" rx=".34" ry=".23"/>
          <ellipse class="cls-2" cx="15.5" cy="10.25" rx=".39" ry=".27"/>
          <ellipse class="cls-2" cx="14.57" cy="10.3" rx=".45" ry=".31"/>
          <ellipse class="cls-2" cx="13.64" cy="10.35" rx=".5" ry=".35"/>
          <ellipse class="cls-2" cx="12.68" cy="10.3" rx=".45" ry=".31"/>
          <ellipse class="cls-2" cx="11.73" cy="10.25" rx=".39" ry=".27"/>
          <ellipse class="cls-2" cx="10.78" cy="10.2" rx=".34" ry=".23"/>
          <ellipse class="cls-2" cx="9.82" cy="10.15" rx=".28" ry=".2"/>
          <ellipse class="cls-2" cx="8.87" cy="10.1" rx=".22" ry=".16"/>
          <ellipse class="cls-2" cx="7.92" cy="10.05" rx=".17" ry=".12"/>
        </g>
      </g>
    </g>
  </g>
</svg>