<?xml version="1.0" encoding="UTF-8"?>
<svg id="_레이어_2" data-name="레이어 2" xmlns="http://www.w3.org/2000/svg" viewBox="0 0 21.71 21.71">
  <defs>
    <style>
      .cls-1 {
        fill: #009800;
      }

      .cls-2 {
        stroke-linecap: round;
        stroke-width: .88px;
      }

      .cls-2, .cls-3 {
        fill: none;
        stroke: #009800;
        stroke-miterlimit: 10;
      }

      .cls-3 {
        stroke-width: 1.01px;
      }
    </style>
  </defs>
  <g id="_레이어_1-2" data-name="레이어 1">
    <g>
      <circle class="cls-3" cx="10.86" cy="10.86" r="10.35"/>
      <g>
        <circle class="cls-1" cx="12.1" cy="5.66" r="1.92"/>
        <path class="cls-2" d="M15.79,6.89c-2.4,2.09-3.8,2.21-4.65,1.92-.85-.29-1.17-1-2.28-1.29-1.15-.3-2.23.09-2.94.43"/>
        <path class="cls-1" d="M10.64,8.51h1.79c.44,0,.81.36.81.81v5.26h-3.4v-5.26c0-.44.36-.81.81-.81Z" transform="translate(23.07 23.08) rotate(-180)"/>
        <path class="cls-2" d="M12.23,14.06c.07,0,1.57.08,2.29,1.41.65,1.21.07,2.4.02,2.51"/>
        <path class="cls-2" d="M10.28,14.04c-.04.12-.39,1.19-1.45,1.54-.97.32-2.13-.1-2.77-1.06"/>
      </g>
    </g>
  </g>
</svg>